<svg width="140" height="30" viewBox="0 0 140 30" fill="none" xmlns="http://www.w3.org/2000/svg">
<path d="M38.2552 22.4696C42.339 22.4696 44.8258 20.5303 44.8258 17.1766C44.8258 11.5186 36.3616 12.7506 36.3616 11.3132C36.3616 10.9254 36.6126 10.6288 37.5252 10.6288C38.9625 10.6288 40.6736 11.1307 41.9968 12.1346L44.4608 8.87208C42.7269 7.45757 40.4911 6.75032 38.0043 6.75032C33.8292 6.75032 31.6846 9.2143 31.6846 11.7923C31.6846 17.7926 40.1717 16.3096 40.1717 17.7698C40.1717 18.3629 39.3503 18.5911 38.4834 18.5911C36.4301 18.5911 34.719 17.7241 33.5782 16.629L31.1827 20.0512C32.8025 21.5114 35.0156 22.4696 38.2552 22.4696ZM60.8253 22.1958L54.825 14.051L60.5743 6.97847H54.9391L50.9466 12.6821V6.97847H46.338V22.1958H50.9466V17.9751L51.7907 16.8344L55.2129 22.1958H60.8253ZM68.2368 22.4696C72.9366 22.4696 76.5641 19.2755 76.5641 14.5985C76.5641 9.92155 72.9366 6.72751 68.2368 6.72751C63.537 6.72751 59.9095 9.92155 59.9095 14.5985C59.9095 19.2755 63.537 22.4696 68.2368 22.4696ZM68.2368 18.4086C66.0238 18.4086 64.5865 16.7203 64.5865 14.5985C64.5865 12.4768 66.0238 10.7885 68.2368 10.7885C70.4498 10.7885 71.8871 12.4768 71.8871 14.5985C71.8871 16.7203 70.4498 18.4086 68.2368 18.4086ZM91.8185 22.1958L89.058 16.8116C90.2671 16.2184 91.7957 14.8267 91.7957 12.203C91.7957 9.35118 89.8793 6.97847 86.3202 6.97847H78.1982V22.1958H82.8068V17.4047H84.4722L86.5712 22.1958H91.8185ZM85.613 13.3894H82.8068V10.9938H85.613C86.3887 10.9938 87.1187 11.3589 87.1187 12.1802C87.1187 13.0243 86.3887 13.3894 85.613 13.3894ZM104.041 22.1958V18.1804H98.269V6.97847H93.6605V22.1958H104.041ZM110.501 22.1958V6.97847H105.892V22.1958H110.501ZM117.563 22.1958V16.515H124.339V12.4996H117.563V10.9938H124.499V6.97847H112.955V22.1958H117.563ZM138.001 22.1958V18.1804H131.065V16.515H137.841V12.4996H131.065V10.9938H138.001V6.97847H126.456V22.1958H138.001Z" fill="black"/>
<path d="M8.83552 20.0762L0 14.9531V20.3492C0.00042427 21.0136 0.175203 21.6662 0.50676 22.2413C0.838313 22.8164 1.31496 23.2938 1.88875 23.6255L9.58782 28.0901V21.3771C9.58589 21.1133 9.51548 20.8547 9.38354 20.6266C9.25163 20.3984 9.06275 20.2088 8.83552 20.0762Z" fill="#0376FD"/>
<path d="M10.9003 9.5567C10.5011 9.32581 10.1696 8.99345 9.93919 8.59309C9.70878 8.19273 9.58759 7.73849 9.58785 7.27616V0.611328L1.88878 5.07597C1.31499 5.40761 0.838344 5.885 0.50679 6.46012C0.175233 7.03521 0.00045433 7.6878 3.00592e-05 8.35218V12.2226C-0.0021861 12.6853 0.118177 13.1403 0.348798 13.541C0.579421 13.9418 0.912021 14.2738 1.31255 14.5031L9.42776 19.2087C9.80432 19.4262 10.1167 19.74 10.3332 20.1179C10.5497 20.496 10.6625 20.9247 10.6603 21.3607V28.1379L18.3593 23.6733C18.9331 23.3417 19.4097 22.8643 19.7413 22.2892C20.0728 21.7141 20.2476 21.0615 20.2481 20.3971V16.5267C20.2503 16.064 20.1299 15.6089 19.8993 15.2082C19.6687 14.8075 19.3361 14.4755 18.9355 14.2462L10.9003 9.5567Z" fill="#03B2FD"/>
<path d="M11.4125 8.6091L20.248 13.7322V8.33609C20.2476 7.67166 20.0727 7.01912 19.7412 6.44399C19.4097 5.86886 18.933 5.39152 18.3592 5.05984L10.6602 0.595215V7.29218C10.6599 7.55852 10.7293 7.82022 10.8613 8.05128C10.9933 8.28233 11.1833 8.47466 11.4125 8.6091Z" fill="#0376FD"/>
</svg>
